<mxfile host="Electron" modified="2023-08-01T02:14:56.524Z" agent="Mozilla/5.0 (Windows NT 10.0; Win64; x64) AppleWebKit/537.36 (KHTML, like Gecko) draw.io/21.6.5 Chrome/114.0.5735.243 Electron/25.3.1 Safari/537.36" etag="8YxOy2gaJmnHQEe_KXpJ" version="21.6.5" type="device">
  <diagram id="C5RBs43oDa-KdzZeNtuy" name="Page-1">
    <mxGraphModel dx="978" dy="571" grid="1" gridSize="10" guides="1" tooltips="1" connect="1" arrows="1" fold="1" page="1" pageScale="1" pageWidth="827" pageHeight="1169" math="0" shadow="0">
      <root>
        <mxCell id="WIyWlLk6GJQsqaUBKTNV-0" />
        <mxCell id="WIyWlLk6GJQsqaUBKTNV-1" parent="WIyWlLk6GJQsqaUBKTNV-0" />
        <mxCell id="JP_Mk3H_aA3oEAF-Sj7--0" value="&lt;strong&gt;User&lt;/strong&gt;" style="swimlane;whiteSpace=wrap;html=1;" parent="WIyWlLk6GJQsqaUBKTNV-1" vertex="1">
          <mxGeometry x="130" y="60" width="200" height="210" as="geometry" />
        </mxCell>
        <mxCell id="JP_Mk3H_aA3oEAF-Sj7--2" value="&lt;div&gt;username&amp;nbsp;&lt;/div&gt;&lt;div&gt;first_name&amp;nbsp;&lt;/div&gt;&lt;div&gt;last_name&amp;nbsp;&lt;/div&gt;&lt;div&gt;email&amp;nbsp;&lt;/div&gt;&lt;div&gt;password&amp;nbsp;&lt;/div&gt;&lt;div&gt;groups&amp;nbsp;&lt;/div&gt;&lt;div&gt;user_permissions&amp;nbsp;&lt;/div&gt;&lt;div&gt;is_staff&amp;nbsp;&lt;/div&gt;&lt;div&gt;is_active&amp;nbsp;&lt;/div&gt;&lt;div&gt;is_superuser&amp;nbsp;&lt;/div&gt;&lt;div&gt;last_login&amp;nbsp;&lt;/div&gt;&lt;div&gt;date_joined&amp;nbsp;&lt;/div&gt;" style="text;html=1;align=center;verticalAlign=middle;resizable=0;points=[];autosize=1;strokeColor=none;fillColor=none;" parent="JP_Mk3H_aA3oEAF-Sj7--0" vertex="1">
          <mxGeometry x="40" y="20" width="120" height="190" as="geometry" />
        </mxCell>
        <mxCell id="JP_Mk3H_aA3oEAF-Sj7--3" value="Activity" style="swimlane;whiteSpace=wrap;html=1;" parent="WIyWlLk6GJQsqaUBKTNV-1" vertex="1">
          <mxGeometry x="400" y="60" width="200" height="215" as="geometry" />
        </mxCell>
        <mxCell id="JP_Mk3H_aA3oEAF-Sj7--4" value="Id&lt;br&gt;title&lt;br&gt;text&lt;br&gt;admins&lt;br&gt;start_time&lt;br&gt;end_time&lt;br&gt;public_grade&lt;br&gt;is_all_registered&lt;br&gt;registered_list&lt;br&gt;question_list&lt;br style=&quot;border-color: var(--border-color);&quot;&gt;create_data&lt;br style=&quot;border-color: var(--border-color);&quot;&gt;last_change_data&lt;br&gt;is_active" style="text;html=1;align=center;verticalAlign=middle;resizable=0;points=[];autosize=1;strokeColor=none;fillColor=none;" parent="JP_Mk3H_aA3oEAF-Sj7--3" vertex="1">
          <mxGeometry x="40" y="15" width="120" height="200" as="geometry" />
        </mxCell>
        <mxCell id="JP_Mk3H_aA3oEAF-Sj7--5" value="Result" style="swimlane;whiteSpace=wrap;html=1;" parent="WIyWlLk6GJQsqaUBKTNV-1" vertex="1">
          <mxGeometry x="130" y="340" width="200" height="210" as="geometry" />
        </mxCell>
        <mxCell id="JP_Mk3H_aA3oEAF-Sj7--6" value="Id&lt;br&gt;from_user&lt;br&gt;from_activity&lt;br&gt;answer_list&lt;br&gt;public_grade_u&lt;br&gt;create_data&lt;br&gt;last_change_data" style="text;html=1;align=center;verticalAlign=middle;resizable=0;points=[];autosize=1;strokeColor=none;fillColor=none;" parent="JP_Mk3H_aA3oEAF-Sj7--5" vertex="1">
          <mxGeometry x="40" y="60" width="120" height="110" as="geometry" />
        </mxCell>
        <mxCell id="JP_Mk3H_aA3oEAF-Sj7--12" value="" style="endArrow=classic;html=1;rounded=0;entryX=0.086;entryY=0.995;entryDx=0;entryDy=0;entryPerimeter=0;exitX=-0.01;exitY=0.332;exitDx=0;exitDy=0;exitPerimeter=0;" parent="WIyWlLk6GJQsqaUBKTNV-1" target="JP_Mk3H_aA3oEAF-Sj7--2" edge="1">
          <mxGeometry relative="1" as="geometry">
            <mxPoint x="195.9000000000001" y="428.8800000000001" as="sourcePoint" />
            <mxPoint x="194.72000000000003" y="260.1399999999999" as="targetPoint" />
            <Array as="points">
              <mxPoint x="80" y="349" />
            </Array>
          </mxGeometry>
        </mxCell>
        <mxCell id="JP_Mk3H_aA3oEAF-Sj7--13" value="&amp;nbsp;FOREIGN KEY&amp;nbsp;" style="edgeLabel;resizable=0;html=1;align=center;verticalAlign=middle;" parent="JP_Mk3H_aA3oEAF-Sj7--12" connectable="0" vertex="1">
          <mxGeometry relative="1" as="geometry" />
        </mxCell>
        <mxCell id="JP_Mk3H_aA3oEAF-Sj7--14" value="" style="endArrow=classic;html=1;rounded=0;" parent="WIyWlLk6GJQsqaUBKTNV-1" edge="1">
          <mxGeometry relative="1" as="geometry">
            <mxPoint x="475" y="133" as="sourcePoint" />
            <mxPoint x="330" y="133" as="targetPoint" />
          </mxGeometry>
        </mxCell>
        <mxCell id="JP_Mk3H_aA3oEAF-Sj7--15" value="ManyToMany" style="edgeLabel;resizable=0;html=1;align=center;verticalAlign=middle;" parent="JP_Mk3H_aA3oEAF-Sj7--14" connectable="0" vertex="1">
          <mxGeometry relative="1" as="geometry" />
        </mxCell>
        <mxCell id="JP_Mk3H_aA3oEAF-Sj7--16" value="" style="endArrow=classic;html=1;rounded=0;" parent="WIyWlLk6GJQsqaUBKTNV-1" edge="1">
          <mxGeometry relative="1" as="geometry">
            <mxPoint x="266" y="443" as="sourcePoint" />
            <mxPoint x="490" y="270" as="targetPoint" />
            <Array as="points">
              <mxPoint x="490" y="440" />
            </Array>
          </mxGeometry>
        </mxCell>
        <mxCell id="JP_Mk3H_aA3oEAF-Sj7--17" value="&amp;nbsp;FOREIGN KEY&amp;nbsp;" style="edgeLabel;resizable=0;html=1;align=center;verticalAlign=middle;" parent="JP_Mk3H_aA3oEAF-Sj7--16" connectable="0" vertex="1">
          <mxGeometry relative="1" as="geometry" />
        </mxCell>
        <mxCell id="JP_Mk3H_aA3oEAF-Sj7--18" value="public_grade" style="swimlane;fontStyle=0;childLayout=stackLayout;horizontal=1;startSize=30;horizontalStack=0;resizeParent=1;resizeParentMax=0;resizeLast=0;collapsible=1;marginBottom=0;whiteSpace=wrap;html=1;" parent="WIyWlLk6GJQsqaUBKTNV-1" vertex="1">
          <mxGeometry x="650" y="162" width="150" height="240" as="geometry">
            <mxRectangle x="540" y="350" width="110" height="30" as="alternateBounds" />
          </mxGeometry>
        </mxCell>
        <mxCell id="JP_Mk3H_aA3oEAF-Sj7--19" value="public_disclosure&amp;nbsp;" style="text;strokeColor=none;fillColor=none;align=left;verticalAlign=middle;spacingLeft=4;spacingRight=4;overflow=hidden;points=[[0,0.5],[1,0.5]];portConstraint=eastwest;rotatable=0;whiteSpace=wrap;html=1;" parent="JP_Mk3H_aA3oEAF-Sj7--18" vertex="1">
          <mxGeometry y="30" width="150" height="30" as="geometry" />
        </mxCell>
        <mxCell id="JP_Mk3H_aA3oEAF-Sj7--20" value="partial_disclosure&amp;nbsp;" style="text;strokeColor=none;fillColor=none;align=left;verticalAlign=middle;spacingLeft=4;spacingRight=4;overflow=hidden;points=[[0,0.5],[1,0.5]];portConstraint=eastwest;rotatable=0;whiteSpace=wrap;html=1;" parent="JP_Mk3H_aA3oEAF-Sj7--18" vertex="1">
          <mxGeometry y="60" width="150" height="30" as="geometry" />
        </mxCell>
        <mxCell id="JP_Mk3H_aA3oEAF-Sj7--22" value="internal_disclosure&amp;nbsp;" style="text;strokeColor=none;fillColor=none;align=left;verticalAlign=middle;spacingLeft=4;spacingRight=4;overflow=hidden;points=[[0,0.5],[1,0.5]];portConstraint=eastwest;rotatable=0;whiteSpace=wrap;html=1;" parent="JP_Mk3H_aA3oEAF-Sj7--18" vertex="1">
          <mxGeometry y="90" width="150" height="30" as="geometry" />
        </mxCell>
        <mxCell id="JP_Mk3H_aA3oEAF-Sj7--23" value="partial_internal_disclosure&amp;nbsp;" style="text;strokeColor=none;fillColor=none;align=left;verticalAlign=middle;spacingLeft=4;spacingRight=4;overflow=hidden;points=[[0,0.5],[1,0.5]];portConstraint=eastwest;rotatable=0;whiteSpace=wrap;html=1;" parent="JP_Mk3H_aA3oEAF-Sj7--18" vertex="1">
          <mxGeometry y="120" width="150" height="30" as="geometry" />
        </mxCell>
        <mxCell id="JP_Mk3H_aA3oEAF-Sj7--24" value="internal_confidentiality&amp;nbsp;" style="text;strokeColor=none;fillColor=none;align=left;verticalAlign=middle;spacingLeft=4;spacingRight=4;overflow=hidden;points=[[0,0.5],[1,0.5]];portConstraint=eastwest;rotatable=0;whiteSpace=wrap;html=1;" parent="JP_Mk3H_aA3oEAF-Sj7--18" vertex="1">
          <mxGeometry y="150" width="150" height="30" as="geometry" />
        </mxCell>
        <mxCell id="JP_Mk3H_aA3oEAF-Sj7--21" value="strictly_confidential&amp;nbsp;" style="text;strokeColor=none;fillColor=none;align=left;verticalAlign=middle;spacingLeft=4;spacingRight=4;overflow=hidden;points=[[0,0.5],[1,0.5]];portConstraint=eastwest;rotatable=0;whiteSpace=wrap;html=1;" parent="JP_Mk3H_aA3oEAF-Sj7--18" vertex="1">
          <mxGeometry y="180" width="150" height="30" as="geometry" />
        </mxCell>
        <mxCell id="JP_Mk3H_aA3oEAF-Sj7--25" value="system_confidentiality&amp;nbsp;" style="text;strokeColor=none;fillColor=none;align=left;verticalAlign=middle;spacingLeft=4;spacingRight=4;overflow=hidden;points=[[0,0.5],[1,0.5]];portConstraint=eastwest;rotatable=0;whiteSpace=wrap;html=1;" parent="JP_Mk3H_aA3oEAF-Sj7--18" vertex="1">
          <mxGeometry y="210" width="150" height="30" as="geometry" />
        </mxCell>
        <mxCell id="JP_Mk3H_aA3oEAF-Sj7--27" value="" style="endArrow=classic;html=1;rounded=0;" parent="WIyWlLk6GJQsqaUBKTNV-1" edge="1">
          <mxGeometry relative="1" as="geometry">
            <mxPoint x="639" y="175" as="sourcePoint" />
            <mxPoint x="549" y="175" as="targetPoint" />
          </mxGeometry>
        </mxCell>
        <mxCell id="JP_Mk3H_aA3oEAF-Sj7--28" value="List" style="edgeLabel;resizable=0;html=1;align=center;verticalAlign=middle;" parent="JP_Mk3H_aA3oEAF-Sj7--27" connectable="0" vertex="1">
          <mxGeometry relative="1" as="geometry" />
        </mxCell>
        <mxCell id="JP_Mk3H_aA3oEAF-Sj7--30" value="public_grade_u" style="swimlane;fontStyle=0;childLayout=stackLayout;horizontal=1;startSize=30;horizontalStack=0;resizeParent=1;resizeParentMax=0;resizeLast=0;collapsible=1;marginBottom=0;whiteSpace=wrap;html=1;" parent="WIyWlLk6GJQsqaUBKTNV-1" vertex="1">
          <mxGeometry x="650" y="450" width="150" height="120" as="geometry" />
        </mxCell>
        <mxCell id="JP_Mk3H_aA3oEAF-Sj7--31" value="public" style="text;strokeColor=none;fillColor=none;align=left;verticalAlign=middle;spacingLeft=4;spacingRight=4;overflow=hidden;points=[[0,0.5],[1,0.5]];portConstraint=eastwest;rotatable=0;whiteSpace=wrap;html=1;" parent="JP_Mk3H_aA3oEAF-Sj7--30" vertex="1">
          <mxGeometry y="30" width="150" height="30" as="geometry" />
        </mxCell>
        <mxCell id="JP_Mk3H_aA3oEAF-Sj7--32" value="public_to_staff" style="text;strokeColor=none;fillColor=none;align=left;verticalAlign=middle;spacingLeft=4;spacingRight=4;overflow=hidden;points=[[0,0.5],[1,0.5]];portConstraint=eastwest;rotatable=0;whiteSpace=wrap;html=1;" parent="JP_Mk3H_aA3oEAF-Sj7--30" vertex="1">
          <mxGeometry y="60" width="150" height="30" as="geometry" />
        </mxCell>
        <mxCell id="JP_Mk3H_aA3oEAF-Sj7--33" value="secrecy" style="text;strokeColor=none;fillColor=none;align=left;verticalAlign=middle;spacingLeft=4;spacingRight=4;overflow=hidden;points=[[0,0.5],[1,0.5]];portConstraint=eastwest;rotatable=0;whiteSpace=wrap;html=1;" parent="JP_Mk3H_aA3oEAF-Sj7--30" vertex="1">
          <mxGeometry y="90" width="150" height="30" as="geometry" />
        </mxCell>
        <mxCell id="JP_Mk3H_aA3oEAF-Sj7--34" value="" style="endArrow=classic;html=1;rounded=0;" parent="WIyWlLk6GJQsqaUBKTNV-1" edge="1">
          <mxGeometry relative="1" as="geometry">
            <mxPoint x="640" y="471" as="sourcePoint" />
            <mxPoint x="290" y="471" as="targetPoint" />
          </mxGeometry>
        </mxCell>
        <mxCell id="JP_Mk3H_aA3oEAF-Sj7--35" value="List" style="edgeLabel;resizable=0;html=1;align=center;verticalAlign=middle;" parent="JP_Mk3H_aA3oEAF-Sj7--34" connectable="0" vertex="1">
          <mxGeometry relative="1" as="geometry" />
        </mxCell>
        <mxCell id="ooLQF2p6TVrrnsOlnIrK-0" value="" style="endArrow=classic;html=1;rounded=0;" edge="1" parent="WIyWlLk6GJQsqaUBKTNV-1">
          <mxGeometry relative="1" as="geometry">
            <mxPoint x="460" y="204" as="sourcePoint" />
            <mxPoint x="330" y="204.21" as="targetPoint" />
          </mxGeometry>
        </mxCell>
        <mxCell id="ooLQF2p6TVrrnsOlnIrK-1" value="ManyToMany" style="edgeLabel;resizable=0;html=1;align=center;verticalAlign=middle;" connectable="0" vertex="1" parent="ooLQF2p6TVrrnsOlnIrK-0">
          <mxGeometry relative="1" as="geometry" />
        </mxCell>
        <mxCell id="ooLQF2p6TVrrnsOlnIrK-111" value="permission" style="shape=table;startSize=30;container=1;collapsible=0;childLayout=tableLayout;" vertex="1" parent="WIyWlLk6GJQsqaUBKTNV-1">
          <mxGeometry x="60" y="630" width="510" height="350" as="geometry" />
        </mxCell>
        <mxCell id="ooLQF2p6TVrrnsOlnIrK-112" value="" style="shape=tableRow;horizontal=0;startSize=0;swimlaneHead=0;swimlaneBody=0;strokeColor=inherit;top=0;left=0;bottom=0;right=0;collapsible=0;dropTarget=0;fillColor=none;points=[[0,0.5],[1,0.5]];portConstraint=eastwest;" vertex="1" parent="ooLQF2p6TVrrnsOlnIrK-111">
          <mxGeometry y="30" width="510" height="40" as="geometry" />
        </mxCell>
        <mxCell id="ooLQF2p6TVrrnsOlnIrK-113" value="grade" style="shape=partialRectangle;html=1;whiteSpace=wrap;connectable=0;strokeColor=inherit;overflow=hidden;fillColor=none;top=0;left=0;bottom=0;right=0;pointerEvents=1;" vertex="1" parent="ooLQF2p6TVrrnsOlnIrK-112">
          <mxGeometry width="160" height="40" as="geometry">
            <mxRectangle width="160" height="40" as="alternateBounds" />
          </mxGeometry>
        </mxCell>
        <mxCell id="ooLQF2p6TVrrnsOlnIrK-114" value="no_login" style="shape=partialRectangle;html=1;whiteSpace=wrap;connectable=0;strokeColor=inherit;overflow=hidden;fillColor=none;top=0;left=0;bottom=0;right=0;pointerEvents=1;" vertex="1" parent="ooLQF2p6TVrrnsOlnIrK-112">
          <mxGeometry x="160" width="70" height="40" as="geometry">
            <mxRectangle width="70" height="40" as="alternateBounds" />
          </mxGeometry>
        </mxCell>
        <mxCell id="ooLQF2p6TVrrnsOlnIrK-115" value="user" style="shape=partialRectangle;html=1;whiteSpace=wrap;connectable=0;strokeColor=inherit;overflow=hidden;fillColor=none;top=0;left=0;bottom=0;right=0;pointerEvents=1;" vertex="1" parent="ooLQF2p6TVrrnsOlnIrK-112">
          <mxGeometry x="230" width="70" height="40" as="geometry">
            <mxRectangle width="70" height="40" as="alternateBounds" />
          </mxGeometry>
        </mxCell>
        <mxCell id="ooLQF2p6TVrrnsOlnIrK-116" value="staff" style="shape=partialRectangle;html=1;whiteSpace=wrap;connectable=0;strokeColor=inherit;overflow=hidden;fillColor=none;top=0;left=0;bottom=0;right=0;pointerEvents=1;" vertex="1" parent="ooLQF2p6TVrrnsOlnIrK-112">
          <mxGeometry x="300" width="70" height="40" as="geometry">
            <mxRectangle width="70" height="40" as="alternateBounds" />
          </mxGeometry>
        </mxCell>
        <mxCell id="ooLQF2p6TVrrnsOlnIrK-117" value="admins" style="shape=partialRectangle;html=1;whiteSpace=wrap;connectable=0;strokeColor=inherit;overflow=hidden;fillColor=none;top=0;left=0;bottom=0;right=0;pointerEvents=1;" vertex="1" parent="ooLQF2p6TVrrnsOlnIrK-112">
          <mxGeometry x="370" width="70" height="40" as="geometry">
            <mxRectangle width="70" height="40" as="alternateBounds" />
          </mxGeometry>
        </mxCell>
        <mxCell id="ooLQF2p6TVrrnsOlnIrK-118" value="superadmin" style="shape=partialRectangle;html=1;whiteSpace=wrap;connectable=0;strokeColor=inherit;overflow=hidden;fillColor=none;top=0;left=0;bottom=0;right=0;pointerEvents=1;" vertex="1" parent="ooLQF2p6TVrrnsOlnIrK-112">
          <mxGeometry x="440" width="70" height="40" as="geometry">
            <mxRectangle width="70" height="40" as="alternateBounds" />
          </mxGeometry>
        </mxCell>
        <mxCell id="ooLQF2p6TVrrnsOlnIrK-119" value="" style="shape=tableRow;horizontal=0;startSize=0;swimlaneHead=0;swimlaneBody=0;strokeColor=inherit;top=0;left=0;bottom=0;right=0;collapsible=0;dropTarget=0;fillColor=none;points=[[0,0.5],[1,0.5]];portConstraint=eastwest;" vertex="1" parent="ooLQF2p6TVrrnsOlnIrK-111">
          <mxGeometry y="70" width="510" height="40" as="geometry" />
        </mxCell>
        <mxCell id="ooLQF2p6TVrrnsOlnIrK-120" value="public_disclosure&amp;nbsp;" style="shape=partialRectangle;html=1;whiteSpace=wrap;connectable=0;strokeColor=inherit;overflow=hidden;fillColor=none;top=0;left=0;bottom=0;right=0;pointerEvents=1;" vertex="1" parent="ooLQF2p6TVrrnsOlnIrK-119">
          <mxGeometry width="160" height="40" as="geometry">
            <mxRectangle width="160" height="40" as="alternateBounds" />
          </mxGeometry>
        </mxCell>
        <mxCell id="ooLQF2p6TVrrnsOlnIrK-121" value="√" style="shape=partialRectangle;html=1;whiteSpace=wrap;connectable=0;strokeColor=inherit;overflow=hidden;fillColor=none;top=0;left=0;bottom=0;right=0;pointerEvents=1;fontSize=16;align=center;verticalAlign=bottom;horizontal=1;" vertex="1" parent="ooLQF2p6TVrrnsOlnIrK-119">
          <mxGeometry x="160" width="70" height="40" as="geometry">
            <mxRectangle width="70" height="40" as="alternateBounds" />
          </mxGeometry>
        </mxCell>
        <mxCell id="ooLQF2p6TVrrnsOlnIrK-122" value="&#xa;&lt;span style=&quot;color: rgb(0, 0, 0); font-family: Helvetica; font-size: 16px; font-style: normal; font-variant-ligatures: normal; font-variant-caps: normal; font-weight: 400; letter-spacing: normal; orphans: 2; text-indent: 0px; text-transform: none; widows: 2; word-spacing: 0px; -webkit-text-stroke-width: 0px; background-color: rgb(251, 251, 251); text-decoration-thickness: initial; text-decoration-style: initial; text-decoration-color: initial; float: none; display: inline !important;&quot;&gt;√&lt;/span&gt;&#xa;&#xa;" style="shape=partialRectangle;html=1;whiteSpace=wrap;connectable=0;strokeColor=inherit;overflow=hidden;fillColor=none;top=0;left=0;bottom=0;right=0;pointerEvents=1;fontSize=16;align=center;verticalAlign=bottom;horizontal=1;" vertex="1" parent="ooLQF2p6TVrrnsOlnIrK-119">
          <mxGeometry x="230" width="70" height="40" as="geometry">
            <mxRectangle width="70" height="40" as="alternateBounds" />
          </mxGeometry>
        </mxCell>
        <mxCell id="ooLQF2p6TVrrnsOlnIrK-123" value="&#xa;&lt;span style=&quot;color: rgb(0, 0, 0); font-family: Helvetica; font-size: 16px; font-style: normal; font-variant-ligatures: normal; font-variant-caps: normal; font-weight: 400; letter-spacing: normal; orphans: 2; text-indent: 0px; text-transform: none; widows: 2; word-spacing: 0px; -webkit-text-stroke-width: 0px; background-color: rgb(251, 251, 251); text-decoration-thickness: initial; text-decoration-style: initial; text-decoration-color: initial; float: none; display: inline !important;&quot;&gt;√&lt;/span&gt;&#xa;&#xa;" style="shape=partialRectangle;html=1;whiteSpace=wrap;connectable=0;strokeColor=inherit;overflow=hidden;fillColor=none;top=0;left=0;bottom=0;right=0;pointerEvents=1;fontSize=16;align=center;verticalAlign=bottom;horizontal=1;" vertex="1" parent="ooLQF2p6TVrrnsOlnIrK-119">
          <mxGeometry x="300" width="70" height="40" as="geometry">
            <mxRectangle width="70" height="40" as="alternateBounds" />
          </mxGeometry>
        </mxCell>
        <mxCell id="ooLQF2p6TVrrnsOlnIrK-124" value="&#xa;&lt;span style=&quot;color: rgb(0, 0, 0); font-family: Helvetica; font-size: 16px; font-style: normal; font-variant-ligatures: normal; font-variant-caps: normal; font-weight: 400; letter-spacing: normal; orphans: 2; text-indent: 0px; text-transform: none; widows: 2; word-spacing: 0px; -webkit-text-stroke-width: 0px; background-color: rgb(251, 251, 251); text-decoration-thickness: initial; text-decoration-style: initial; text-decoration-color: initial; float: none; display: inline !important;&quot;&gt;√&lt;/span&gt;&#xa;&#xa;" style="shape=partialRectangle;html=1;whiteSpace=wrap;connectable=0;strokeColor=inherit;overflow=hidden;fillColor=none;top=0;left=0;bottom=0;right=0;pointerEvents=1;fontSize=16;align=center;verticalAlign=bottom;horizontal=1;" vertex="1" parent="ooLQF2p6TVrrnsOlnIrK-119">
          <mxGeometry x="370" width="70" height="40" as="geometry">
            <mxRectangle width="70" height="40" as="alternateBounds" />
          </mxGeometry>
        </mxCell>
        <mxCell id="ooLQF2p6TVrrnsOlnIrK-125" value="&lt;span style=&quot;color: rgb(0, 0, 0); font-family: Helvetica; font-size: 16px; font-style: normal; font-variant-ligatures: normal; font-variant-caps: normal; font-weight: 400; letter-spacing: normal; orphans: 2; text-indent: 0px; text-transform: none; widows: 2; word-spacing: 0px; -webkit-text-stroke-width: 0px; background-color: rgb(251, 251, 251); text-decoration-thickness: initial; text-decoration-style: initial; text-decoration-color: initial; float: none; display: inline !important;&quot;&gt;&lt;br&gt;√&lt;/span&gt;" style="shape=partialRectangle;html=1;whiteSpace=wrap;connectable=0;strokeColor=inherit;overflow=hidden;fillColor=none;top=0;left=0;bottom=0;right=0;pointerEvents=1;fontSize=16;align=center;verticalAlign=middle;horizontal=1;" vertex="1" parent="ooLQF2p6TVrrnsOlnIrK-119">
          <mxGeometry x="440" width="70" height="40" as="geometry">
            <mxRectangle width="70" height="40" as="alternateBounds" />
          </mxGeometry>
        </mxCell>
        <mxCell id="ooLQF2p6TVrrnsOlnIrK-126" value="" style="shape=tableRow;horizontal=0;startSize=0;swimlaneHead=0;swimlaneBody=0;strokeColor=inherit;top=0;left=0;bottom=0;right=0;collapsible=0;dropTarget=0;fillColor=none;points=[[0,0.5],[1,0.5]];portConstraint=eastwest;" vertex="1" parent="ooLQF2p6TVrrnsOlnIrK-111">
          <mxGeometry y="110" width="510" height="40" as="geometry" />
        </mxCell>
        <mxCell id="ooLQF2p6TVrrnsOlnIrK-127" value="partial_disclosure&amp;nbsp;" style="shape=partialRectangle;html=1;whiteSpace=wrap;connectable=0;strokeColor=inherit;overflow=hidden;fillColor=none;top=0;left=0;bottom=0;right=0;pointerEvents=1;" vertex="1" parent="ooLQF2p6TVrrnsOlnIrK-126">
          <mxGeometry width="160" height="40" as="geometry">
            <mxRectangle width="160" height="40" as="alternateBounds" />
          </mxGeometry>
        </mxCell>
        <mxCell id="ooLQF2p6TVrrnsOlnIrK-128" value="only&quot;public&quot;" style="shape=partialRectangle;html=1;whiteSpace=wrap;connectable=0;strokeColor=inherit;overflow=hidden;fillColor=none;top=0;left=0;bottom=0;right=0;pointerEvents=1;" vertex="1" parent="ooLQF2p6TVrrnsOlnIrK-126">
          <mxGeometry x="160" width="70" height="40" as="geometry">
            <mxRectangle width="70" height="40" as="alternateBounds" />
          </mxGeometry>
        </mxCell>
        <mxCell id="ooLQF2p6TVrrnsOlnIrK-129" value="&#xa;&lt;span style=&quot;color: rgb(0, 0, 0); font-family: Helvetica; font-size: 16px; font-style: normal; font-variant-ligatures: normal; font-variant-caps: normal; font-weight: 400; letter-spacing: normal; orphans: 2; text-indent: 0px; text-transform: none; widows: 2; word-spacing: 0px; -webkit-text-stroke-width: 0px; background-color: rgb(251, 251, 251); text-decoration-thickness: initial; text-decoration-style: initial; text-decoration-color: initial; float: none; display: inline !important;&quot;&gt;√&lt;/span&gt;&#xa;&#xa;" style="shape=partialRectangle;html=1;whiteSpace=wrap;connectable=0;strokeColor=inherit;overflow=hidden;fillColor=none;top=0;left=0;bottom=0;right=0;pointerEvents=1;fontSize=16;align=center;verticalAlign=bottom;horizontal=1;" vertex="1" parent="ooLQF2p6TVrrnsOlnIrK-126">
          <mxGeometry x="230" width="70" height="40" as="geometry">
            <mxRectangle width="70" height="40" as="alternateBounds" />
          </mxGeometry>
        </mxCell>
        <mxCell id="ooLQF2p6TVrrnsOlnIrK-130" value="&#xa;&lt;span style=&quot;color: rgb(0, 0, 0); font-family: Helvetica; font-size: 16px; font-style: normal; font-variant-ligatures: normal; font-variant-caps: normal; font-weight: 400; letter-spacing: normal; orphans: 2; text-indent: 0px; text-transform: none; widows: 2; word-spacing: 0px; -webkit-text-stroke-width: 0px; background-color: rgb(251, 251, 251); text-decoration-thickness: initial; text-decoration-style: initial; text-decoration-color: initial; float: none; display: inline !important;&quot;&gt;√&lt;/span&gt;&#xa;&#xa;" style="shape=partialRectangle;html=1;whiteSpace=wrap;connectable=0;strokeColor=inherit;overflow=hidden;fillColor=none;top=0;left=0;bottom=0;right=0;pointerEvents=1;fontSize=16;align=center;verticalAlign=bottom;horizontal=1;" vertex="1" parent="ooLQF2p6TVrrnsOlnIrK-126">
          <mxGeometry x="300" width="70" height="40" as="geometry">
            <mxRectangle width="70" height="40" as="alternateBounds" />
          </mxGeometry>
        </mxCell>
        <mxCell id="ooLQF2p6TVrrnsOlnIrK-131" value="&#xa;&lt;span style=&quot;color: rgb(0, 0, 0); font-family: Helvetica; font-size: 16px; font-style: normal; font-variant-ligatures: normal; font-variant-caps: normal; font-weight: 400; letter-spacing: normal; orphans: 2; text-indent: 0px; text-transform: none; widows: 2; word-spacing: 0px; -webkit-text-stroke-width: 0px; background-color: rgb(251, 251, 251); text-decoration-thickness: initial; text-decoration-style: initial; text-decoration-color: initial; float: none; display: inline !important;&quot;&gt;√&lt;/span&gt;&#xa;&#xa;" style="shape=partialRectangle;html=1;whiteSpace=wrap;connectable=0;strokeColor=inherit;overflow=hidden;fillColor=none;top=0;left=0;bottom=0;right=0;pointerEvents=1;fontSize=16;align=center;verticalAlign=bottom;horizontal=1;" vertex="1" parent="ooLQF2p6TVrrnsOlnIrK-126">
          <mxGeometry x="370" width="70" height="40" as="geometry">
            <mxRectangle width="70" height="40" as="alternateBounds" />
          </mxGeometry>
        </mxCell>
        <mxCell id="ooLQF2p6TVrrnsOlnIrK-132" value="&#xa;&lt;span style=&quot;color: rgb(0, 0, 0); font-family: Helvetica; font-size: 16px; font-style: normal; font-variant-ligatures: normal; font-variant-caps: normal; font-weight: 400; letter-spacing: normal; orphans: 2; text-align: center; text-indent: 0px; text-transform: none; widows: 2; word-spacing: 0px; -webkit-text-stroke-width: 0px; background-color: rgb(251, 251, 251); text-decoration-thickness: initial; text-decoration-style: initial; text-decoration-color: initial; float: none; display: inline !important;&quot;&gt;√&lt;/span&gt;&#xa;&#xa;" style="shape=partialRectangle;html=1;whiteSpace=wrap;connectable=0;strokeColor=inherit;overflow=hidden;fillColor=none;top=0;left=0;bottom=0;right=0;pointerEvents=1;fontSize=16;align=center;verticalAlign=bottom;horizontal=1;" vertex="1" parent="ooLQF2p6TVrrnsOlnIrK-126">
          <mxGeometry x="440" width="70" height="40" as="geometry">
            <mxRectangle width="70" height="40" as="alternateBounds" />
          </mxGeometry>
        </mxCell>
        <mxCell id="ooLQF2p6TVrrnsOlnIrK-133" value="" style="shape=tableRow;horizontal=0;startSize=0;swimlaneHead=0;swimlaneBody=0;strokeColor=inherit;top=0;left=0;bottom=0;right=0;collapsible=0;dropTarget=0;fillColor=none;points=[[0,0.5],[1,0.5]];portConstraint=eastwest;" vertex="1" parent="ooLQF2p6TVrrnsOlnIrK-111">
          <mxGeometry y="150" width="510" height="40" as="geometry" />
        </mxCell>
        <mxCell id="ooLQF2p6TVrrnsOlnIrK-134" value="internal_disclosure&amp;nbsp;" style="shape=partialRectangle;html=1;whiteSpace=wrap;connectable=0;strokeColor=inherit;overflow=hidden;fillColor=none;top=0;left=0;bottom=0;right=0;pointerEvents=1;" vertex="1" parent="ooLQF2p6TVrrnsOlnIrK-133">
          <mxGeometry width="160" height="40" as="geometry">
            <mxRectangle width="160" height="40" as="alternateBounds" />
          </mxGeometry>
        </mxCell>
        <mxCell id="ooLQF2p6TVrrnsOlnIrK-135" value="×" style="shape=partialRectangle;html=1;whiteSpace=wrap;connectable=0;strokeColor=inherit;overflow=hidden;fillColor=none;top=0;left=0;bottom=0;right=0;pointerEvents=1;fontSize=16;align=center;verticalAlign=bottom;horizontal=1;" vertex="1" parent="ooLQF2p6TVrrnsOlnIrK-133">
          <mxGeometry x="160" width="70" height="40" as="geometry">
            <mxRectangle width="70" height="40" as="alternateBounds" />
          </mxGeometry>
        </mxCell>
        <mxCell id="ooLQF2p6TVrrnsOlnIrK-136" value="&#xa;&lt;span style=&quot;color: rgb(0, 0, 0); font-family: Helvetica; font-size: 16px; font-style: normal; font-variant-ligatures: normal; font-variant-caps: normal; font-weight: 400; letter-spacing: normal; orphans: 2; text-indent: 0px; text-transform: none; widows: 2; word-spacing: 0px; -webkit-text-stroke-width: 0px; background-color: rgb(251, 251, 251); text-decoration-thickness: initial; text-decoration-style: initial; text-decoration-color: initial; float: none; display: inline !important;&quot;&gt;√&lt;/span&gt;&#xa;&#xa;" style="shape=partialRectangle;html=1;whiteSpace=wrap;connectable=0;strokeColor=inherit;overflow=hidden;fillColor=none;top=0;left=0;bottom=0;right=0;pointerEvents=1;fontSize=16;align=center;verticalAlign=bottom;horizontal=1;" vertex="1" parent="ooLQF2p6TVrrnsOlnIrK-133">
          <mxGeometry x="230" width="70" height="40" as="geometry">
            <mxRectangle width="70" height="40" as="alternateBounds" />
          </mxGeometry>
        </mxCell>
        <mxCell id="ooLQF2p6TVrrnsOlnIrK-137" value="&#xa;&lt;span style=&quot;color: rgb(0, 0, 0); font-family: Helvetica; font-size: 16px; font-style: normal; font-variant-ligatures: normal; font-variant-caps: normal; font-weight: 400; letter-spacing: normal; orphans: 2; text-indent: 0px; text-transform: none; widows: 2; word-spacing: 0px; -webkit-text-stroke-width: 0px; background-color: rgb(251, 251, 251); text-decoration-thickness: initial; text-decoration-style: initial; text-decoration-color: initial; float: none; display: inline !important;&quot;&gt;√&lt;/span&gt;&#xa;&#xa;" style="shape=partialRectangle;html=1;whiteSpace=wrap;connectable=0;strokeColor=inherit;overflow=hidden;fillColor=none;top=0;left=0;bottom=0;right=0;pointerEvents=1;fontSize=16;align=center;verticalAlign=bottom;horizontal=1;" vertex="1" parent="ooLQF2p6TVrrnsOlnIrK-133">
          <mxGeometry x="300" width="70" height="40" as="geometry">
            <mxRectangle width="70" height="40" as="alternateBounds" />
          </mxGeometry>
        </mxCell>
        <mxCell id="ooLQF2p6TVrrnsOlnIrK-138" value="&#xa;&lt;span style=&quot;color: rgb(0, 0, 0); font-family: Helvetica; font-size: 16px; font-style: normal; font-variant-ligatures: normal; font-variant-caps: normal; font-weight: 400; letter-spacing: normal; orphans: 2; text-indent: 0px; text-transform: none; widows: 2; word-spacing: 0px; -webkit-text-stroke-width: 0px; background-color: rgb(251, 251, 251); text-decoration-thickness: initial; text-decoration-style: initial; text-decoration-color: initial; float: none; display: inline !important;&quot;&gt;√&lt;/span&gt;&#xa;&#xa;" style="shape=partialRectangle;html=1;whiteSpace=wrap;connectable=0;strokeColor=inherit;overflow=hidden;fillColor=none;top=0;left=0;bottom=0;right=0;pointerEvents=1;fontSize=16;align=center;verticalAlign=bottom;horizontal=1;" vertex="1" parent="ooLQF2p6TVrrnsOlnIrK-133">
          <mxGeometry x="370" width="70" height="40" as="geometry">
            <mxRectangle width="70" height="40" as="alternateBounds" />
          </mxGeometry>
        </mxCell>
        <mxCell id="ooLQF2p6TVrrnsOlnIrK-139" value="&#xa;&lt;span style=&quot;color: rgb(0, 0, 0); font-family: Helvetica; font-size: 16px; font-style: normal; font-variant-ligatures: normal; font-variant-caps: normal; font-weight: 400; letter-spacing: normal; orphans: 2; text-indent: 0px; text-transform: none; widows: 2; word-spacing: 0px; -webkit-text-stroke-width: 0px; background-color: rgb(251, 251, 251); text-decoration-thickness: initial; text-decoration-style: initial; text-decoration-color: initial; float: none; display: inline !important;&quot;&gt;√&lt;/span&gt;&#xa;&#xa;" style="shape=partialRectangle;html=1;whiteSpace=wrap;connectable=0;strokeColor=inherit;overflow=hidden;fillColor=none;top=0;left=0;bottom=0;right=0;pointerEvents=1;fontSize=16;align=center;verticalAlign=bottom;horizontal=1;" vertex="1" parent="ooLQF2p6TVrrnsOlnIrK-133">
          <mxGeometry x="440" width="70" height="40" as="geometry">
            <mxRectangle width="70" height="40" as="alternateBounds" />
          </mxGeometry>
        </mxCell>
        <mxCell id="ooLQF2p6TVrrnsOlnIrK-140" value="" style="shape=tableRow;horizontal=0;startSize=0;swimlaneHead=0;swimlaneBody=0;strokeColor=inherit;top=0;left=0;bottom=0;right=0;collapsible=0;dropTarget=0;fillColor=none;points=[[0,0.5],[1,0.5]];portConstraint=eastwest;" vertex="1" parent="ooLQF2p6TVrrnsOlnIrK-111">
          <mxGeometry y="190" width="510" height="40" as="geometry" />
        </mxCell>
        <mxCell id="ooLQF2p6TVrrnsOlnIrK-141" value="partial_internal_disclosure&amp;nbsp;" style="shape=partialRectangle;html=1;whiteSpace=wrap;connectable=0;strokeColor=inherit;overflow=hidden;fillColor=none;top=0;left=0;bottom=0;right=0;pointerEvents=1;" vertex="1" parent="ooLQF2p6TVrrnsOlnIrK-140">
          <mxGeometry width="160" height="40" as="geometry">
            <mxRectangle width="160" height="40" as="alternateBounds" />
          </mxGeometry>
        </mxCell>
        <mxCell id="ooLQF2p6TVrrnsOlnIrK-142" value="&#xa;&lt;span style=&quot;color: rgb(0, 0, 0); font-family: Helvetica; font-size: 16px; font-style: normal; font-variant-ligatures: normal; font-variant-caps: normal; font-weight: 400; letter-spacing: normal; orphans: 2; text-indent: 0px; text-transform: none; widows: 2; word-spacing: 0px; -webkit-text-stroke-width: 0px; background-color: rgb(251, 251, 251); text-decoration-thickness: initial; text-decoration-style: initial; text-decoration-color: initial; float: none; display: inline !important;&quot;&gt;×&lt;/span&gt;&#xa;&#xa;" style="shape=partialRectangle;html=1;whiteSpace=wrap;connectable=0;strokeColor=inherit;overflow=hidden;fillColor=none;top=0;left=0;bottom=0;right=0;pointerEvents=1;fontSize=16;align=center;verticalAlign=bottom;horizontal=1;" vertex="1" parent="ooLQF2p6TVrrnsOlnIrK-140">
          <mxGeometry x="160" width="70" height="40" as="geometry">
            <mxRectangle width="70" height="40" as="alternateBounds" />
          </mxGeometry>
        </mxCell>
        <mxCell id="ooLQF2p6TVrrnsOlnIrK-143" value="only&quot;public&quot;" style="shape=partialRectangle;html=1;whiteSpace=wrap;connectable=0;strokeColor=inherit;overflow=hidden;fillColor=none;top=0;left=0;bottom=0;right=0;pointerEvents=1;" vertex="1" parent="ooLQF2p6TVrrnsOlnIrK-140">
          <mxGeometry x="230" width="70" height="40" as="geometry">
            <mxRectangle width="70" height="40" as="alternateBounds" />
          </mxGeometry>
        </mxCell>
        <mxCell id="ooLQF2p6TVrrnsOlnIrK-144" value="not&quot;secrecy&quot;" style="shape=partialRectangle;html=1;whiteSpace=wrap;connectable=0;strokeColor=inherit;overflow=hidden;fillColor=none;top=0;left=0;bottom=0;right=0;pointerEvents=1;" vertex="1" parent="ooLQF2p6TVrrnsOlnIrK-140">
          <mxGeometry x="300" width="70" height="40" as="geometry">
            <mxRectangle width="70" height="40" as="alternateBounds" />
          </mxGeometry>
        </mxCell>
        <mxCell id="ooLQF2p6TVrrnsOlnIrK-145" value="&#xa;&lt;span style=&quot;color: rgb(0, 0, 0); font-family: Helvetica; font-size: 16px; font-style: normal; font-variant-ligatures: normal; font-variant-caps: normal; font-weight: 400; letter-spacing: normal; orphans: 2; text-indent: 0px; text-transform: none; widows: 2; word-spacing: 0px; -webkit-text-stroke-width: 0px; background-color: rgb(251, 251, 251); text-decoration-thickness: initial; text-decoration-style: initial; text-decoration-color: initial; float: none; display: inline !important;&quot;&gt;√&lt;/span&gt;&#xa;&#xa;" style="shape=partialRectangle;html=1;whiteSpace=wrap;connectable=0;strokeColor=inherit;overflow=hidden;fillColor=none;top=0;left=0;bottom=0;right=0;pointerEvents=1;fontSize=16;align=center;verticalAlign=bottom;horizontal=1;" vertex="1" parent="ooLQF2p6TVrrnsOlnIrK-140">
          <mxGeometry x="370" width="70" height="40" as="geometry">
            <mxRectangle width="70" height="40" as="alternateBounds" />
          </mxGeometry>
        </mxCell>
        <mxCell id="ooLQF2p6TVrrnsOlnIrK-146" value="&#xa;&lt;span style=&quot;color: rgb(0, 0, 0); font-family: Helvetica; font-size: 16px; font-style: normal; font-variant-ligatures: normal; font-variant-caps: normal; font-weight: 400; letter-spacing: normal; orphans: 2; text-indent: 0px; text-transform: none; widows: 2; word-spacing: 0px; -webkit-text-stroke-width: 0px; background-color: rgb(251, 251, 251); text-decoration-thickness: initial; text-decoration-style: initial; text-decoration-color: initial; float: none; display: inline !important;&quot;&gt;√&lt;/span&gt;&#xa;&#xa;" style="shape=partialRectangle;html=1;whiteSpace=wrap;connectable=0;strokeColor=inherit;overflow=hidden;fillColor=none;top=0;left=0;bottom=0;right=0;pointerEvents=1;fontSize=16;align=center;verticalAlign=bottom;horizontal=1;" vertex="1" parent="ooLQF2p6TVrrnsOlnIrK-140">
          <mxGeometry x="440" width="70" height="40" as="geometry">
            <mxRectangle width="70" height="40" as="alternateBounds" />
          </mxGeometry>
        </mxCell>
        <mxCell id="ooLQF2p6TVrrnsOlnIrK-147" value="" style="shape=tableRow;horizontal=0;startSize=0;swimlaneHead=0;swimlaneBody=0;strokeColor=inherit;top=0;left=0;bottom=0;right=0;collapsible=0;dropTarget=0;fillColor=none;points=[[0,0.5],[1,0.5]];portConstraint=eastwest;" vertex="1" parent="ooLQF2p6TVrrnsOlnIrK-111">
          <mxGeometry y="230" width="510" height="40" as="geometry" />
        </mxCell>
        <mxCell id="ooLQF2p6TVrrnsOlnIrK-148" value="internal_confidentiality&amp;nbsp;" style="shape=partialRectangle;html=1;whiteSpace=wrap;connectable=0;strokeColor=inherit;overflow=hidden;fillColor=none;top=0;left=0;bottom=0;right=0;pointerEvents=1;" vertex="1" parent="ooLQF2p6TVrrnsOlnIrK-147">
          <mxGeometry width="160" height="40" as="geometry">
            <mxRectangle width="160" height="40" as="alternateBounds" />
          </mxGeometry>
        </mxCell>
        <mxCell id="ooLQF2p6TVrrnsOlnIrK-149" value="&#xa;&lt;span style=&quot;color: rgb(0, 0, 0); font-family: Helvetica; font-size: 16px; font-style: normal; font-variant-ligatures: normal; font-variant-caps: normal; font-weight: 400; letter-spacing: normal; orphans: 2; text-indent: 0px; text-transform: none; widows: 2; word-spacing: 0px; -webkit-text-stroke-width: 0px; background-color: rgb(251, 251, 251); text-decoration-thickness: initial; text-decoration-style: initial; text-decoration-color: initial; float: none; display: inline !important;&quot;&gt;×&lt;/span&gt;&#xa;&#xa;" style="shape=partialRectangle;html=1;whiteSpace=wrap;connectable=0;strokeColor=inherit;overflow=hidden;fillColor=none;top=0;left=0;bottom=0;right=0;pointerEvents=1;fontSize=16;align=center;verticalAlign=bottom;horizontal=1;" vertex="1" parent="ooLQF2p6TVrrnsOlnIrK-147">
          <mxGeometry x="160" width="70" height="40" as="geometry">
            <mxRectangle width="70" height="40" as="alternateBounds" />
          </mxGeometry>
        </mxCell>
        <mxCell id="ooLQF2p6TVrrnsOlnIrK-150" value="&#xa;&lt;span style=&quot;color: rgb(0, 0, 0); font-family: Helvetica; font-size: 16px; font-style: normal; font-variant-ligatures: normal; font-variant-caps: normal; font-weight: 400; letter-spacing: normal; orphans: 2; text-indent: 0px; text-transform: none; widows: 2; word-spacing: 0px; -webkit-text-stroke-width: 0px; background-color: rgb(251, 251, 251); text-decoration-thickness: initial; text-decoration-style: initial; text-decoration-color: initial; float: none; display: inline !important;&quot;&gt;×&lt;/span&gt;&#xa;&#xa;" style="shape=partialRectangle;html=1;whiteSpace=wrap;connectable=0;strokeColor=inherit;overflow=hidden;fillColor=none;top=0;left=0;bottom=0;right=0;pointerEvents=1;fontSize=16;align=center;verticalAlign=bottom;horizontal=1;" vertex="1" parent="ooLQF2p6TVrrnsOlnIrK-147">
          <mxGeometry x="230" width="70" height="40" as="geometry">
            <mxRectangle width="70" height="40" as="alternateBounds" />
          </mxGeometry>
        </mxCell>
        <mxCell id="ooLQF2p6TVrrnsOlnIrK-151" value="&#xa;&lt;span style=&quot;color: rgb(0, 0, 0); font-family: Helvetica; font-size: 16px; font-style: normal; font-variant-ligatures: normal; font-variant-caps: normal; font-weight: 400; letter-spacing: normal; orphans: 2; text-indent: 0px; text-transform: none; widows: 2; word-spacing: 0px; -webkit-text-stroke-width: 0px; background-color: rgb(251, 251, 251); text-decoration-thickness: initial; text-decoration-style: initial; text-decoration-color: initial; float: none; display: inline !important;&quot;&gt;×&lt;/span&gt;&#xa;&#xa;" style="shape=partialRectangle;html=1;whiteSpace=wrap;connectable=0;strokeColor=inherit;overflow=hidden;fillColor=none;top=0;left=0;bottom=0;right=0;pointerEvents=1;fontSize=16;align=center;verticalAlign=bottom;horizontal=1;" vertex="1" parent="ooLQF2p6TVrrnsOlnIrK-147">
          <mxGeometry x="300" width="70" height="40" as="geometry">
            <mxRectangle width="70" height="40" as="alternateBounds" />
          </mxGeometry>
        </mxCell>
        <mxCell id="ooLQF2p6TVrrnsOlnIrK-152" value="&#xa;&lt;span style=&quot;color: rgb(0, 0, 0); font-family: Helvetica; font-size: 16px; font-style: normal; font-variant-ligatures: normal; font-variant-caps: normal; font-weight: 400; letter-spacing: normal; orphans: 2; text-indent: 0px; text-transform: none; widows: 2; word-spacing: 0px; -webkit-text-stroke-width: 0px; background-color: rgb(251, 251, 251); text-decoration-thickness: initial; text-decoration-style: initial; text-decoration-color: initial; float: none; display: inline !important;&quot;&gt;√&lt;/span&gt;&#xa;&#xa;" style="shape=partialRectangle;html=1;whiteSpace=wrap;connectable=0;strokeColor=inherit;overflow=hidden;fillColor=none;top=0;left=0;bottom=0;right=0;pointerEvents=1;fontSize=16;align=center;verticalAlign=bottom;horizontal=1;" vertex="1" parent="ooLQF2p6TVrrnsOlnIrK-147">
          <mxGeometry x="370" width="70" height="40" as="geometry">
            <mxRectangle width="70" height="40" as="alternateBounds" />
          </mxGeometry>
        </mxCell>
        <mxCell id="ooLQF2p6TVrrnsOlnIrK-153" value="&#xa;&lt;span style=&quot;color: rgb(0, 0, 0); font-family: Helvetica; font-size: 16px; font-style: normal; font-variant-ligatures: normal; font-variant-caps: normal; font-weight: 400; letter-spacing: normal; orphans: 2; text-indent: 0px; text-transform: none; widows: 2; word-spacing: 0px; -webkit-text-stroke-width: 0px; background-color: rgb(251, 251, 251); text-decoration-thickness: initial; text-decoration-style: initial; text-decoration-color: initial; float: none; display: inline !important;&quot;&gt;√&lt;/span&gt;&#xa;&#xa;" style="shape=partialRectangle;html=1;whiteSpace=wrap;connectable=0;strokeColor=inherit;overflow=hidden;fillColor=none;top=0;left=0;bottom=0;right=0;pointerEvents=1;fontSize=16;align=center;verticalAlign=bottom;horizontal=1;" vertex="1" parent="ooLQF2p6TVrrnsOlnIrK-147">
          <mxGeometry x="440" width="70" height="40" as="geometry">
            <mxRectangle width="70" height="40" as="alternateBounds" />
          </mxGeometry>
        </mxCell>
        <mxCell id="ooLQF2p6TVrrnsOlnIrK-154" value="" style="shape=tableRow;horizontal=0;startSize=0;swimlaneHead=0;swimlaneBody=0;strokeColor=inherit;top=0;left=0;bottom=0;right=0;collapsible=0;dropTarget=0;fillColor=none;points=[[0,0.5],[1,0.5]];portConstraint=eastwest;" vertex="1" parent="ooLQF2p6TVrrnsOlnIrK-111">
          <mxGeometry y="270" width="510" height="40" as="geometry" />
        </mxCell>
        <mxCell id="ooLQF2p6TVrrnsOlnIrK-155" value="strictly_confidential&amp;nbsp;" style="shape=partialRectangle;html=1;whiteSpace=wrap;connectable=0;strokeColor=inherit;overflow=hidden;fillColor=none;top=0;left=0;bottom=0;right=0;pointerEvents=1;" vertex="1" parent="ooLQF2p6TVrrnsOlnIrK-154">
          <mxGeometry width="160" height="40" as="geometry">
            <mxRectangle width="160" height="40" as="alternateBounds" />
          </mxGeometry>
        </mxCell>
        <mxCell id="ooLQF2p6TVrrnsOlnIrK-156" value="&#xa;&lt;span style=&quot;color: rgb(0, 0, 0); font-family: Helvetica; font-size: 16px; font-style: normal; font-variant-ligatures: normal; font-variant-caps: normal; font-weight: 400; letter-spacing: normal; orphans: 2; text-indent: 0px; text-transform: none; widows: 2; word-spacing: 0px; -webkit-text-stroke-width: 0px; background-color: rgb(251, 251, 251); text-decoration-thickness: initial; text-decoration-style: initial; text-decoration-color: initial; float: none; display: inline !important;&quot;&gt;×&lt;/span&gt;&#xa;&#xa;" style="shape=partialRectangle;html=1;whiteSpace=wrap;connectable=0;strokeColor=inherit;overflow=hidden;fillColor=none;top=0;left=0;bottom=0;right=0;pointerEvents=1;fontSize=16;align=center;verticalAlign=bottom;horizontal=1;" vertex="1" parent="ooLQF2p6TVrrnsOlnIrK-154">
          <mxGeometry x="160" width="70" height="40" as="geometry">
            <mxRectangle width="70" height="40" as="alternateBounds" />
          </mxGeometry>
        </mxCell>
        <mxCell id="ooLQF2p6TVrrnsOlnIrK-157" value="&#xa;&lt;span style=&quot;color: rgb(0, 0, 0); font-family: Helvetica; font-size: 16px; font-style: normal; font-variant-ligatures: normal; font-variant-caps: normal; font-weight: 400; letter-spacing: normal; orphans: 2; text-indent: 0px; text-transform: none; widows: 2; word-spacing: 0px; -webkit-text-stroke-width: 0px; background-color: rgb(251, 251, 251); text-decoration-thickness: initial; text-decoration-style: initial; text-decoration-color: initial; float: none; display: inline !important;&quot;&gt;×&lt;/span&gt;&#xa;&#xa;" style="shape=partialRectangle;html=1;whiteSpace=wrap;connectable=0;strokeColor=inherit;overflow=hidden;fillColor=none;top=0;left=0;bottom=0;right=0;pointerEvents=1;fontSize=16;align=center;verticalAlign=bottom;horizontal=1;" vertex="1" parent="ooLQF2p6TVrrnsOlnIrK-154">
          <mxGeometry x="230" width="70" height="40" as="geometry">
            <mxRectangle width="70" height="40" as="alternateBounds" />
          </mxGeometry>
        </mxCell>
        <mxCell id="ooLQF2p6TVrrnsOlnIrK-158" value="&#xa;&lt;span style=&quot;color: rgb(0, 0, 0); font-family: Helvetica; font-size: 16px; font-style: normal; font-variant-ligatures: normal; font-variant-caps: normal; font-weight: 400; letter-spacing: normal; orphans: 2; text-indent: 0px; text-transform: none; widows: 2; word-spacing: 0px; -webkit-text-stroke-width: 0px; background-color: rgb(251, 251, 251); text-decoration-thickness: initial; text-decoration-style: initial; text-decoration-color: initial; float: none; display: inline !important;&quot;&gt;×&lt;/span&gt;&#xa;&#xa;" style="shape=partialRectangle;html=1;whiteSpace=wrap;connectable=0;strokeColor=inherit;overflow=hidden;fillColor=none;top=0;left=0;bottom=0;right=0;pointerEvents=1;fontSize=16;align=center;verticalAlign=bottom;horizontal=1;" vertex="1" parent="ooLQF2p6TVrrnsOlnIrK-154">
          <mxGeometry x="300" width="70" height="40" as="geometry">
            <mxRectangle width="70" height="40" as="alternateBounds" />
          </mxGeometry>
        </mxCell>
        <mxCell id="ooLQF2p6TVrrnsOlnIrK-159" value="&#xa;&lt;span style=&quot;color: rgb(0, 0, 0); font-family: Helvetica; font-size: 16px; font-style: normal; font-variant-ligatures: normal; font-variant-caps: normal; font-weight: 400; letter-spacing: normal; orphans: 2; text-indent: 0px; text-transform: none; widows: 2; word-spacing: 0px; -webkit-text-stroke-width: 0px; background-color: rgb(251, 251, 251); text-decoration-thickness: initial; text-decoration-style: initial; text-decoration-color: initial; float: none; display: inline !important;&quot;&gt;×&lt;/span&gt;&#xa;&#xa;" style="shape=partialRectangle;html=1;whiteSpace=wrap;connectable=0;strokeColor=inherit;overflow=hidden;fillColor=none;top=0;left=0;bottom=0;right=0;pointerEvents=1;fontSize=16;align=center;verticalAlign=bottom;horizontal=1;" vertex="1" parent="ooLQF2p6TVrrnsOlnIrK-154">
          <mxGeometry x="370" width="70" height="40" as="geometry">
            <mxRectangle width="70" height="40" as="alternateBounds" />
          </mxGeometry>
        </mxCell>
        <mxCell id="ooLQF2p6TVrrnsOlnIrK-160" value="&#xa;&lt;span style=&quot;color: rgb(0, 0, 0); font-family: Helvetica; font-size: 16px; font-style: normal; font-variant-ligatures: normal; font-variant-caps: normal; font-weight: 400; letter-spacing: normal; orphans: 2; text-indent: 0px; text-transform: none; widows: 2; word-spacing: 0px; -webkit-text-stroke-width: 0px; background-color: rgb(251, 251, 251); text-decoration-thickness: initial; text-decoration-style: initial; text-decoration-color: initial; float: none; display: inline !important;&quot;&gt;√&lt;/span&gt;&#xa;&#xa;" style="shape=partialRectangle;html=1;whiteSpace=wrap;connectable=0;strokeColor=inherit;overflow=hidden;fillColor=none;top=0;left=0;bottom=0;right=0;pointerEvents=1;fontSize=16;align=center;verticalAlign=bottom;horizontal=1;" vertex="1" parent="ooLQF2p6TVrrnsOlnIrK-154">
          <mxGeometry x="440" width="70" height="40" as="geometry">
            <mxRectangle width="70" height="40" as="alternateBounds" />
          </mxGeometry>
        </mxCell>
        <mxCell id="ooLQF2p6TVrrnsOlnIrK-161" value="" style="shape=tableRow;horizontal=0;startSize=0;swimlaneHead=0;swimlaneBody=0;strokeColor=inherit;top=0;left=0;bottom=0;right=0;collapsible=0;dropTarget=0;fillColor=none;points=[[0,0.5],[1,0.5]];portConstraint=eastwest;" vertex="1" parent="ooLQF2p6TVrrnsOlnIrK-111">
          <mxGeometry y="310" width="510" height="40" as="geometry" />
        </mxCell>
        <mxCell id="ooLQF2p6TVrrnsOlnIrK-162" value="system_confidentiality&amp;nbsp;" style="shape=partialRectangle;html=1;whiteSpace=wrap;connectable=0;strokeColor=inherit;overflow=hidden;fillColor=none;top=0;left=0;bottom=0;right=0;pointerEvents=1;" vertex="1" parent="ooLQF2p6TVrrnsOlnIrK-161">
          <mxGeometry width="160" height="40" as="geometry">
            <mxRectangle width="160" height="40" as="alternateBounds" />
          </mxGeometry>
        </mxCell>
        <mxCell id="ooLQF2p6TVrrnsOlnIrK-163" value="&#xa;&lt;span style=&quot;color: rgb(0, 0, 0); font-family: Helvetica; font-size: 16px; font-style: normal; font-variant-ligatures: normal; font-variant-caps: normal; font-weight: 400; letter-spacing: normal; orphans: 2; text-indent: 0px; text-transform: none; widows: 2; word-spacing: 0px; -webkit-text-stroke-width: 0px; background-color: rgb(251, 251, 251); text-decoration-thickness: initial; text-decoration-style: initial; text-decoration-color: initial; float: none; display: inline !important;&quot;&gt;×&lt;/span&gt;&#xa;&#xa;" style="shape=partialRectangle;html=1;whiteSpace=wrap;connectable=0;strokeColor=inherit;overflow=hidden;fillColor=none;top=0;left=0;bottom=0;right=0;pointerEvents=1;fontSize=16;align=center;verticalAlign=bottom;horizontal=1;" vertex="1" parent="ooLQF2p6TVrrnsOlnIrK-161">
          <mxGeometry x="160" width="70" height="40" as="geometry">
            <mxRectangle width="70" height="40" as="alternateBounds" />
          </mxGeometry>
        </mxCell>
        <mxCell id="ooLQF2p6TVrrnsOlnIrK-164" value="&#xa;&lt;span style=&quot;color: rgb(0, 0, 0); font-family: Helvetica; font-size: 16px; font-style: normal; font-variant-ligatures: normal; font-variant-caps: normal; font-weight: 400; letter-spacing: normal; orphans: 2; text-indent: 0px; text-transform: none; widows: 2; word-spacing: 0px; -webkit-text-stroke-width: 0px; background-color: rgb(251, 251, 251); text-decoration-thickness: initial; text-decoration-style: initial; text-decoration-color: initial; float: none; display: inline !important;&quot;&gt;×&lt;/span&gt;&#xa;&#xa;" style="shape=partialRectangle;html=1;whiteSpace=wrap;connectable=0;strokeColor=inherit;overflow=hidden;fillColor=none;top=0;left=0;bottom=0;right=0;pointerEvents=1;fontSize=16;align=center;verticalAlign=bottom;horizontal=1;" vertex="1" parent="ooLQF2p6TVrrnsOlnIrK-161">
          <mxGeometry x="230" width="70" height="40" as="geometry">
            <mxRectangle width="70" height="40" as="alternateBounds" />
          </mxGeometry>
        </mxCell>
        <mxCell id="ooLQF2p6TVrrnsOlnIrK-165" value="&#xa;&lt;span style=&quot;color: rgb(0, 0, 0); font-family: Helvetica; font-size: 16px; font-style: normal; font-variant-ligatures: normal; font-variant-caps: normal; font-weight: 400; letter-spacing: normal; orphans: 2; text-indent: 0px; text-transform: none; widows: 2; word-spacing: 0px; -webkit-text-stroke-width: 0px; background-color: rgb(251, 251, 251); text-decoration-thickness: initial; text-decoration-style: initial; text-decoration-color: initial; float: none; display: inline !important;&quot;&gt;×&lt;/span&gt;&#xa;&#xa;" style="shape=partialRectangle;html=1;whiteSpace=wrap;connectable=0;strokeColor=inherit;overflow=hidden;fillColor=none;top=0;left=0;bottom=0;right=0;pointerEvents=1;fontSize=16;align=center;verticalAlign=bottom;horizontal=1;" vertex="1" parent="ooLQF2p6TVrrnsOlnIrK-161">
          <mxGeometry x="300" width="70" height="40" as="geometry">
            <mxRectangle width="70" height="40" as="alternateBounds" />
          </mxGeometry>
        </mxCell>
        <mxCell id="ooLQF2p6TVrrnsOlnIrK-166" value="&#xa;&lt;span style=&quot;color: rgb(0, 0, 0); font-family: Helvetica; font-size: 16px; font-style: normal; font-variant-ligatures: normal; font-variant-caps: normal; font-weight: 400; letter-spacing: normal; orphans: 2; text-indent: 0px; text-transform: none; widows: 2; word-spacing: 0px; -webkit-text-stroke-width: 0px; background-color: rgb(251, 251, 251); text-decoration-thickness: initial; text-decoration-style: initial; text-decoration-color: initial; float: none; display: inline !important;&quot;&gt;×&lt;/span&gt;&#xa;&#xa;" style="shape=partialRectangle;html=1;whiteSpace=wrap;connectable=0;strokeColor=inherit;overflow=hidden;fillColor=none;top=0;left=0;bottom=0;right=0;pointerEvents=1;fontSize=16;align=center;verticalAlign=bottom;horizontal=1;" vertex="1" parent="ooLQF2p6TVrrnsOlnIrK-161">
          <mxGeometry x="370" width="70" height="40" as="geometry">
            <mxRectangle width="70" height="40" as="alternateBounds" />
          </mxGeometry>
        </mxCell>
        <mxCell id="ooLQF2p6TVrrnsOlnIrK-167" value="&#xa;&lt;span style=&quot;color: rgb(0, 0, 0); font-family: Helvetica; font-size: 16px; font-style: normal; font-variant-ligatures: normal; font-variant-caps: normal; font-weight: 400; letter-spacing: normal; orphans: 2; text-indent: 0px; text-transform: none; widows: 2; word-spacing: 0px; -webkit-text-stroke-width: 0px; background-color: rgb(251, 251, 251); text-decoration-thickness: initial; text-decoration-style: initial; text-decoration-color: initial; float: none; display: inline !important;&quot;&gt;×&lt;/span&gt;&#xa;&#xa;" style="shape=partialRectangle;html=1;whiteSpace=wrap;connectable=0;strokeColor=inherit;overflow=hidden;fillColor=none;top=0;left=0;bottom=0;right=0;pointerEvents=1;fontSize=16;align=center;verticalAlign=bottom;horizontal=1;" vertex="1" parent="ooLQF2p6TVrrnsOlnIrK-161">
          <mxGeometry x="440" width="70" height="40" as="geometry">
            <mxRectangle width="70" height="40" as="alternateBounds" />
          </mxGeometry>
        </mxCell>
      </root>
    </mxGraphModel>
  </diagram>
</mxfile>
